<svg xmlns="http://www.w3.org/2000/svg" xmlns:xlink="http://www.w3.org/1999/xlink" width="84.658" height="31.606" viewBox="0 0 84.658 31.606"><defs><style>.a,.b{fill-rule:evenodd;}.a{fill:url(#a);}.b,.c{fill:#267b4b;}.c{font-size:1px;font-family:Arial-BoldMT, Arial;font-weight:700;}</style><radialGradient id="a" cx="0.77" cy="0.52" r="0.659" gradientTransform="matrix(0.319, 0.567, -0.216, 0.808, 0.637, -0.337)" gradientUnits="objectBoundingBox"><stop offset="0" stop-color="#00dc3a"/><stop offset="0.522" stop-color="#09973d"/><stop offset="1" stop-color="#115240"/></radialGradient></defs><g transform="translate(-2744 -2565)"><g transform="translate(2744 2565)"><path class="a" d="M2787.678,2581.423a3.238,3.238,0,0,1,1.743.348,2.666,2.666,0,0,1,.942.736,3.213,3.213,0,0,1,.632,1.071,4.524,4.524,0,0,1-.064,3.112,2.291,2.291,0,0,1-.219.439,3.409,3.409,0,0,1-4.558,1.162,3,3,0,0,1-.736-.581,4.052,4.052,0,0,1,.31-5.591A3.261,3.261,0,0,1,2787.678,2581.423Zm10.122-11.685-1.33.052c-.375,0-.465.039-.658.039h-.375c-.155,0-.194.026-.323.026a2,2,0,0,1-.039-.568c.117-.038,1.175-.891,1.343-1.02l1.356-1.033a4.424,4.424,0,0,1,.387-.31,3.629,3.629,0,0,1,.362.245C2798.5,2567.4,2797.813,2569.531,2797.8,2569.738Zm-4.325-1.149c0,.155.039.168.039.323l.026.736a3.378,3.378,0,0,0,.039.362c0,.49.052.929.052,1.446l1.962-.09c.271,0,.439-.026.671-.026.9,0,1.769-.09,2.686-.09a1.8,1.8,0,0,1,.078-.284l.258-.891c.129-.387.968-3.383,1.045-3.538a13.253,13.253,0,0,1-1.11-.762c-.1-.052-.168-.116-.271-.18s-.181-.13-.284-.207c-.181-.129-.374-.271-.568-.387l-2.867,2.26c-.206.142-.374.3-.581.439S2793.669,2568.486,2793.475,2568.589Zm3.332,23.24h3.137V2578.97h-3.137Zm-2.5-18.075c.529,0,1.149-.065,1.652-.091.349-.026.62-.013,1.033-.064l1.356-.065a1.816,1.816,0,0,0,.3-.026c.129-.013.245.013.361,0,.194-.026.478-.039.671-.052.232-.039.3.013.49.194.452.439,1.292,1.11,1.692,1.511l.955.852h-4.583c-1.562,0-3.008.025-4.571.025,0-.194-.09-.348-.09-.568a1.81,1.81,0,0,0,.388-.194c.142-.064.246-.129.374-.193C2794.327,2574.605,2794.3,2574.231,2794.3,2573.754Zm-1.6-1.459c0,.671.052,1.252.052,1.911l-.9.478a1.769,1.769,0,0,0,.064.362c.026.116.039.219.064.362l.413,2.182c2.1,0,4.106-.039,6.2-.039h6.249l.374-.994a1.544,1.544,0,0,0,.129-.362,5.245,5.245,0,0,1-.581-.5,2.883,2.883,0,0,1-.284-.258l-2.156-1.911c-.464-.387-1.033-.942-1.446-1.278l-.284-.258c-.271-.22-.245-.077-.671-.077-.219,0-.335.026-.517.026Zm-21.2,10.368a3.133,3.133,0,0,0,.7,2.169,4.253,4.253,0,0,0,1.549,1.11c1.1.452,1.446.49,2.453.839a6.137,6.137,0,0,1,1.395.594,1.086,1.086,0,0,1,.258,1.717c-.762.684-2.375.413-3.28.194a7.316,7.316,0,0,1-2.272-1.059c-.129-.1-.246-.194-.375-.284l-1.084,2.233,1.046.7a8.635,8.635,0,0,0,6.3.813l.775-.271a4.1,4.1,0,0,0,.994-.606l.4-.388a3.122,3.122,0,0,0,.7-1.175,3.623,3.623,0,0,0,.167-1.433,3.116,3.116,0,0,0-.891-2.118,4.967,4.967,0,0,0-1.872-1.162c-.7-.271-1.524-.491-2.273-.749-.193-.064-.374-.129-.555-.194-.452-.142-1.175-.529-1.175-1.084,0-.672.322-.956.968-1.124a6.669,6.669,0,0,1,3.886.775,3.56,3.56,0,0,0,.646.31l1.11-2.26c-.181-.1-.361-.232-.555-.336a8.973,8.973,0,0,0-5.345-.943,4.966,4.966,0,0,0-2.557,1.124,3.561,3.561,0,0,0-.774,1.059A3.708,3.708,0,0,0,2771.5,2582.663Zm44.375-.065a3.179,3.179,0,0,0,.7,2.233c1.2,1.536,4.325,1.782,5.4,2.543a1.079,1.079,0,0,1,.258,1.717,1.95,1.95,0,0,1-.942.387,4.855,4.855,0,0,1-1.227.013,9.416,9.416,0,0,1-1.111-.207,7.255,7.255,0,0,1-2.259-1.059c-.142-.1-.245-.194-.387-.284l-1.084,2.233a.643.643,0,0,1,.245.168,6.154,6.154,0,0,0,.8.529,8.17,8.17,0,0,0,1.227.568,9.048,9.048,0,0,0,5.074.258,4.464,4.464,0,0,0,2.3-1.42,3.364,3.364,0,0,0,.736-1.949v-.129a3.365,3.365,0,0,0-.271-1.614,3.526,3.526,0,0,0-1.459-1.549,8.322,8.322,0,0,0-1.02-.5c-.71-.271-1.536-.491-2.272-.749-.568-.18-1.73-.529-1.73-1.278,0-.672.31-.956.956-1.124a6.934,6.934,0,0,1,4.209.942,1.023,1.023,0,0,0,.323.142l1.123-2.26c-.193-.1-.361-.232-.568-.336a8.258,8.258,0,0,0-6.74-.542,2.87,2.87,0,0,0-.594.31c-.1.064-.181.116-.271.181a2.562,2.562,0,0,0-.7.7A3.541,3.541,0,0,0,2815.876,2582.6Zm-66.531-3.809c0,.387-.039.671-.039,1.059h3.331v8.728a2.93,2.93,0,0,1-.568,1.7,2.871,2.871,0,0,1-1.33.93,5.345,5.345,0,0,1-3.951-.323,4.056,4.056,0,0,1-1.278-1.2c-.1-.142-.09-.155-.181-.181a1.759,1.759,0,0,1-.155.31c-.052.1-.1.181-.168.31l-.671,1.226a5.165,5.165,0,0,0-.335.633,5.722,5.722,0,0,0,.968.968,7.377,7.377,0,0,0,6.365,1.175,6.745,6.745,0,0,0,2.492-1.292,5.6,5.6,0,0,0,1.95-4.105v-11.995c-.9,0-1.717-.026-2.634-.026h-3.8Zm11.142,6.675a4.236,4.236,0,0,1,.555-2.2,3.583,3.583,0,0,1,6.313.478,4.643,4.643,0,0,1-.219,3.847l-.388.555a3.607,3.607,0,0,1-6.262-2.686Zm-3.2-.064a10.837,10.837,0,0,0,.155,1.485,6.162,6.162,0,0,0,.956,2.324,6.309,6.309,0,0,0,.749.917,2.654,2.654,0,0,1,.22.181,6.078,6.078,0,0,0,1.782,1.11c2.518.994,5.952.633,7.85-1.278a6.2,6.2,0,0,0,1.33-1.963,7.192,7.192,0,0,0-.3-6.133l-.478-.723a4.742,4.742,0,0,0-.607-.659c-2.35-2.363-7.4-2.376-9.748.013a3.009,3.009,0,0,0-.4.413,5.253,5.253,0,0,0-.956,1.549,6.333,6.333,0,0,0-.4,1.265A9.313,9.313,0,0,0,2757.285,2585.4Zm47.062-.181a4.071,4.071,0,0,1,.3-1.73,3.214,3.214,0,0,1,.633-1.02,3.453,3.453,0,0,1,.942-.723,3.542,3.542,0,0,1,1.73-.323,3.031,3.031,0,0,1,1.343.335,2.532,2.532,0,0,1,.529.323,2.951,2.951,0,0,1,.62.646,4.244,4.244,0,0,1,.155,4.428,2.992,2.992,0,0,1-.8.9,3.554,3.554,0,0,1-3.421.387,3.007,3.007,0,0,1-1.033-.71,3.124,3.124,0,0,1-.685-1.059A3.8,3.8,0,0,1,2804.347,2585.219Zm3.37,11.387h-.167a9.519,9.519,0,0,1-3.112-.542,8.419,8.419,0,0,1-.942-.387,1.374,1.374,0,0,1-.142-.064l-.71-.387a3.749,3.749,0,0,0-.529-.31l1.265-2.3a6.542,6.542,0,0,0,1.1.671,5.969,5.969,0,0,0,1.976.607c.375.052.71.052.813.065a4.909,4.909,0,0,0,1.51-.181,3.391,3.391,0,0,0,1.188-.568c1.317-1.084,1.175-2.117,1.175-3.977l-.529.62a4.119,4.119,0,0,1-1.33.9,4.932,4.932,0,0,1-.839.284,6.677,6.677,0,0,1-1.537.142c-.168-.026-.335,0-.516-.026a5.3,5.3,0,0,1-2.828-1.124,4.838,4.838,0,0,1-1.084-1.149,6.742,6.742,0,0,1-.684-1.317,8.092,8.092,0,0,1-.426-2.621,6.8,6.8,0,0,1,.917-3.512,3.482,3.482,0,0,1,.31-.452,2.95,2.95,0,0,1,.529-.581,4.515,4.515,0,0,1,1.523-1.046,1.248,1.248,0,0,1,.284-.1,5.569,5.569,0,0,1,5.513.813c.31.271.62.723.7.775v-1.872h3.15v11.84a6.186,6.186,0,0,1-.594,2.53c-.078.168-.181.336-.271.491a5.178,5.178,0,0,1-1.072,1.226,5.043,5.043,0,0,1-.942.646,5.713,5.713,0,0,1-1.059.478A8.279,8.279,0,0,1,2807.716,2596.606Zm-19.521,0h-.8a9.635,9.635,0,0,1-4.08-1.072l-1.1-.62c.207-.387.426-.775.633-1.149.064-.1.1-.193.167-.3l.465-.852c.091.064.168.129.271.194a1.765,1.765,0,0,0,.258.155,5.027,5.027,0,0,0,.568.323c1.988.994,5.255,1.046,6.275-1.007.026-.052.051-.09.077-.155l.064-.142a7.342,7.342,0,0,0,.246-2.776c-.026.026.013-.013-.039.052a4.092,4.092,0,0,1-1.252,1.188,4.378,4.378,0,0,1-1.356.581,7.414,7.414,0,0,1-1.511.168c-.155-.026-.335-.013-.516-.026a8.037,8.037,0,0,1-1.369-.3,5.281,5.281,0,0,1-2.182-1.433c-.064-.064-.064-.09-.128-.155a6.53,6.53,0,0,1-.685-1.007,7.157,7.157,0,0,1-.736-3.447,6.786,6.786,0,0,1,.7-3.008,6.355,6.355,0,0,1,.891-1.291c.142-.142.258-.219.4-.361l.4-.323a5.722,5.722,0,0,1,3.409-.968,4.732,4.732,0,0,1,3.267,1.2,1.694,1.694,0,0,1,.374.374l.336.388v-1.872h3.15v11.749a6.893,6.893,0,0,1-.168,1.407,5.484,5.484,0,0,1-3.2,3.835,8.891,8.891,0,0,1-1.795.516A6.438,6.438,0,0,1,2788.195,2596.606Z" transform="translate(-2744 -2565)"/><g transform="translate(81.96 14.202)"><path class="b" d="M9093.355,3665a1.337,1.337,0,1,1-1.355,1.33A1.339,1.339,0,0,1,9093.355,3665Zm0,.271a1.052,1.052,0,1,1-1.059,1.059A1.055,1.055,0,0,1,9093.355,3665.271Z" transform="translate(-9092 -3665)"/><text class="c" transform="translate(0.919 1.391)"><tspan x="0" y="0">R</tspan></text></g></g></g></svg>